<?xml version="1.0" encoding="UTF-8"?><svg id="Layer_1" xmlns="http://www.w3.org/2000/svg" xmlns:xlink="http://www.w3.org/1999/xlink" viewBox="0 0 1920 1080"><defs><style>.cls-1{fill:url(#linear-gradient);}.cls-1,.cls-2,.cls-3,.cls-4,.cls-5{stroke-width:0px;}.cls-2{fill:url(#linear-gradient-4);}.cls-3{fill:url(#linear-gradient-2);}.cls-4{fill:url(#linear-gradient-3);}.cls-5{fill:#fcf9f1;}</style><linearGradient id="linear-gradient" x1="43.21" y1="539.79" x2="303.13" y2="539.79" gradientUnits="userSpaceOnUse"><stop offset=".25" stop-color="#0f6ceb"/><stop offset=".58" stop-color="#00a1fc"/><stop offset=".81" stop-color="#62d6ff"/></linearGradient><linearGradient id="linear-gradient-2" x1="331.83" y1="539.79" x2="407.18" y2="539.79" gradientUnits="userSpaceOnUse"><stop offset="0" stop-color="#62d6ff"/><stop offset="1" stop-color="#00cc89"/></linearGradient><linearGradient id="linear-gradient-3" x1="439.92" y1="541.24" x2="664.83" y2="541.24" gradientUnits="userSpaceOnUse"><stop offset=".06" stop-color="#f7bc00"/><stop offset="1" stop-color="#f96500"/></linearGradient><linearGradient id="linear-gradient-4" x1="684.12" y1="539.79" x2="940.44" y2="539.79" gradientUnits="userSpaceOnUse"><stop offset=".03" stop-color="#f96500"/><stop offset=".36" stop-color="#ef1b1b"/><stop offset="1" stop-color="#ff45ca"/></linearGradient></defs><path class="cls-1" d="m59.89,626.36c5.38-19.6,13.46-44.18,24.23-73.73,8.28-22.92,14.7-41.63,19.26-56.13,4.56-14.5,8.76-31.13,12.63-49.91,3.7-17.97,7.65-40.89,11.86-68.74.32-2.14,2.16-3.75,4.33-3.75h83.29c2.12,0,3.92,1.5,4.29,3.58,9.17,50.79,24.01,108.83,44.51,174.12,10.77,32.86,18.57,58.82,23.4,77.87,4.56,17.99,9.67,41.51,15.35,70.57.53,2.7-1.54,5.23-4.29,5.23h-71.87c-2.33,0-4.23-1.83-4.38-4.16-.5-7.75.25-14.86,2.24-21.31,2.34-7.59,4.97-14.35,7.87-20.3,2.9-5.93,6.69-13.46,11.39-22.57,3.31-6.35,5.73-11.32,7.25-14.91,1.29-3.06,1.74-6.32,1.33-9.78-.14-1.17-.8-2.24-1.77-2.89-6.58-4.44-17.55-7.81-32.9-10.11-16.57-2.48-35.21-3.73-55.92-3.73-17.68,0-31.14,1.1-40.39,3.31-8.61,2.06-15.84,5.55-21.69,10.47-.85.71-1.39,1.75-1.51,2.85-.54,5.01-.2,9.14,1.05,12.36,1.38,3.59,3.73,8.7,7.04,15.33,3.86,7.18,7.11,13.39,9.73,18.64,2.62,5.25,4.76,11.6,6.42,19.05,1.44,6.48,1.94,14.33,1.5,23.53-.11,2.35-2.02,4.23-4.38,4.23H47.59c-2.75,0-4.82-2.53-4.29-5.23,5.96-30.69,11.5-55.32,16.6-73.89Zm146.42-60.89c5.52-.55,10.35-2,14.5-4.35,3.71-2.1,7.09-5.37,10.14-9.81.68-.99.89-2.28.63-3.45-2.38-10.51-5-19.49-7.87-26.92-3.02-7.81-7.13-17.05-12.31-27.72-.07-.15-.16-.31-.25-.45-5.22-8.48-11.11-16.55-17.68-24.22-6.14-7.15-11.92-14.07-17.34-20.76-.83-1.02-2.06-1.6-3.38-1.6h0c-1.3,0-2.55.57-3.38,1.57-5.6,6.71-10.96,13.7-16.07,21-5.53,7.87-10.64,16.51-15.33,25.89-5.25,11.05-9.32,20.78-12.22,29.2-2.69,7.81-5.19,16.38-7.53,25.72-.35,1.39-.03,2.92.93,3.97,3.02,3.29,6.6,5.82,10.73,7.59,4.83,2.07,11.32,3.46,19.47,4.14,8.14.69,19.68,1.04,34.59,1.04,9.39,0,16.84-.27,22.37-.83Z"/><path class="cls-3" d="m334.71,665.09c1.93-10.36,4.69-23.54,8.28-39.56,3.58-14.91,6.14-26.78,7.66-35.62,1.52-8.83,2.28-20.15,2.28-33.96s-.62-24.85-1.86-33.96c-1.24-9.11-3.38-21.54-6.42-37.28-4.14-22.09-7.32-40.39-9.53-54.88-2.07-13.54-3.17-30.65-3.3-51.3-.02-2.42,1.96-4.41,4.38-4.41h65.77c2.42,0,4.39,1.98,4.38,4.41-.13,20.04-1.16,36.18-3.09,48.4-2.07,13.12-5.04,29.62-8.91,49.5-3.04,15.19-5.25,27.33-6.63,36.45-1.38,9.11-2.07,20.71-2.07,34.79s.76,24.79,2.28,32.93c1.51,8.15,3.79,19.13,6.83,32.93,4.14,17.4,7.25,32.03,9.32,43.91,1.92,11,2.95,25.55,3.09,43.64.02,2.42-1.95,4.4-4.38,4.4h-66.59c-2.43,0-4.4-1.98-4.38-4.41.16-14.56,1.11-26.56,2.88-35.97Z"/><path class="cls-4" d="m503.7,689.94c-20.16-13.67-35.83-33.2-47.01-58.61-11.18-25.4-16.78-55.09-16.78-89.06s6-65.45,18.02-91.13c12.01-25.68,29.2-45.28,51.57-58.82,22.37-13.53,49.29-20.29,80.77-20.29,20.03,0,40.32,1.47,60.85,4.41,2.16.31,3.77,2.18,3.77,4.36v62.76c0,2.82-2.63,4.87-5.38,4.24-24-5.5-46.92-8.25-68.76-8.25s-40.46,5.52-56.75,16.57c-16.3,11.05-28.93,25.27-37.9,42.66-8.98,17.4-13.46,35.21-13.46,53.43,0,20.71,6.01,38.04,18.02,51.98,12.01,13.95,27.2,24.23,45.56,30.86,18.36,6.63,37.07,9.94,56.12,9.94,9.94,0,18.43-.89,25.47-2.69,7.04-1.79,12.08-4.35,15.12-7.66v-2.49c-.83-5.8-2.97-11.94-6.42-18.43-3.43-6.44-8.15-13.22-14.15-20.34-.09-.1-.19-.21-.28-.31-6.84-6.83-12.38-12.58-16.63-17.25-4.29-4.69-7.87-10.36-10.77-16.98-2.47-5.66-3.89-12.82-4.25-21.49-.1-2.5,1.88-4.6,4.38-4.6h75.65c2.42,0,4.38,1.96,4.38,4.38v92.25c0,.47-.08.95-.22,1.4-5.2,16-11.41,29.71-18.63,41.15-7.32,11.6-16.78,20.92-28.37,27.96-11.6,7.04-26.1,10.56-43.49,10.56-26.79,0-50.26-6.83-70.41-20.5Z"/><path class="cls-2" d="m699,626.36c5.38-19.6,13.46-44.18,24.23-73.73,8.28-22.92,14.7-41.63,19.26-56.13,4.56-14.5,8.76-31.13,12.63-49.91,3.38-16.44,6.98-37.01,10.79-61.7.95-6.19,6.28-10.78,12.54-10.78h69.22c6.09,0,11.33,4.31,12.46,10.3,9.24,49.17,23.67,104.97,43.27,167.4,10.77,32.86,18.57,58.82,23.4,77.87,4.02,15.88,8.48,36.08,13.38,60.6,1.57,7.85-4.43,15.2-12.44,15.2h-53.45c-7.24,0-13.19-6.06-12.68-13.29.31-4.29,1.05-8.35,2.24-12.19,2.34-7.59,4.97-14.35,7.87-20.3,2.9-5.93,6.69-13.46,11.39-22.57,3.31-6.35,5.73-11.32,7.25-14.91.02-.04.03-.07.05-.11,2.54-6.11-.59-13.23-6.65-15.87-6.54-2.84-15.46-5.11-26.74-6.81-16.57-2.48-35.21-3.73-55.92-3.73-17.68,0-31.14,1.1-40.39,3.31-6.99,1.67-13.08,4.29-18.25,7.85-3.31,2.28-5.24,6.16-5.2,10.17.03,2.95.46,5.51,1.29,7.66,1.38,3.59,3.73,8.7,7.04,15.33,3.86,7.18,7.11,13.39,9.73,18.64,2.62,5.25,4.76,11.6,6.42,19.05.96,4.3,1.5,9.2,1.63,14.7.17,7.14-5.55,13.06-12.7,13.06h-53.87c-8.01,0-14.01-7.35-12.44-15.21,5.22-26.1,10.09-47.4,14.63-63.9Zm146.42-60.89c5.52-.55,10.35-2,14.5-4.35,2.53-1.43,4.91-3.41,7.13-5.92,2.72-3.08,3.66-7.38,2.7-11.38-2.12-8.79-4.43-16.42-6.92-22.88-2.98-7.7-7.01-16.79-12.09-27.27-.22-.45-.46-.9-.73-1.33-5.15-8.32-10.96-16.26-17.42-23.8-6.14-7.15-11.92-14.07-17.34-20.76-.83-1.02-2.06-1.6-3.38-1.6h0c-1.3,0-2.55.57-3.38,1.57-5.6,6.71-10.96,13.7-16.07,21-5.53,7.87-10.64,16.51-15.33,25.89-5.25,11.05-9.32,20.78-12.22,29.2-2.18,6.35-4.25,13.2-6.2,20.56-1.37,5.19.56,10.77,4.99,13.79,1.67,1.13,3.45,2.11,5.35,2.92,4.83,2.07,11.32,3.46,19.47,4.14,8.14.69,19.68,1.04,34.59,1.04,9.39,0,16.84-.27,22.37-.83Z"/><path class="cls-5" d="m972.17,664.68c1.1-13.67,2.21-27.27,3.31-40.8,1.65-19.05,2.9-33.14,3.73-42.25.83-9.11,2.07-22.91,3.73-41.42,1.38-17.4,2.49-30.24,3.31-38.52.83-8.28,1.93-20.85,3.31-37.69,1.1-14.91,2.34-29.82,3.73-44.73,1.03-11.1,2.05-22.28,3.08-33.54.6-6.56,6.1-11.61,12.69-11.61h43.04c5.46,0,10.31,3.5,12.07,8.66,12.04,35.43,21.07,62.16,27.08,80.19,6.49,19.47,16.22,48.53,29.2,87.19,3.58,10.77,6.49,21.33,8.7,31.69,2.1,9.85,4.08,21.52,5.93,35,.16,1.18,1.17,2.07,2.35,2.07h0c1.19,0,2.19-.9,2.35-2.07,1.85-13.47,3.82-25.14,5.93-35,2.21-10.35,5.11-20.92,8.7-31.69,13.53-40.04,23.54-69.72,30.03-89.06,5.99-17.84,14.74-43.92,26.27-78.24,1.75-5.21,6.64-8.74,12.14-8.74h42.96c6.59,0,12.09,5.05,12.69,11.61,1.03,11.26,2.05,22.44,3.08,33.54,1.38,14.91,2.62,29.82,3.73,44.73,1.38,17.4,2.48,30.24,3.31,38.52.83,8.28,1.93,20.85,3.31,37.69,1.66,19.05,2.9,33.14,3.73,42.25.83,9.11,2.07,22.92,3.73,41.42,1.1,13.54,2.21,27.13,3.31,40.8.72,9,1.51,17.96,2.36,26.9.71,7.46-5.19,13.9-12.69,13.9h-37.88c-6.69,0-12.25-5.21-12.71-11.89-.37-5.32-.63-9.64-.8-12.97-.28-5.52-.62-10.98-1.04-16.36-.41-5.39-1.04-13.6-1.86-24.64-.56-10.49-1.04-18.29-1.45-23.4-.41-5.1-.76-10.28-1.03-15.53-.28-5.24-.83-12.98-1.66-23.19-.56-10.21-.83-26.37-.83-48.46,0-13.9-.11-24.46-.34-31.67-.04-1.29-1.09-2.29-2.38-2.29h-.16c-1.01,0-1.92.66-2.25,1.61-12.42,35.64-21.62,62.17-27.6,79.57-6.08,17.68-15.33,44.19-27.75,79.53l-14.04,41.08c-1.76,5.16-6.61,8.62-12.06,8.62h-18.28c-5.42,0-10.25-3.43-12.03-8.55l-6.97-20.03c-10.5-30.37-18.29-53.15-23.4-68.34-5.11-15.18-10.29-30.3-15.53-45.36-5.15-14.78-12.84-36.95-23.05-66.52-.33-.96-1.24-1.62-2.25-1.62h-.07c-1.31,0-2.38,1.04-2.38,2.36,0,12.83-.08,26.34-.21,40.51-.14,15.06-.62,28.37-1.45,39.97-1.1,14.08-2.21,28.1-3.31,42.04-1.1,13.95-2.21,27.96-3.31,42.04-.29,5.08-.64,10.1-1.06,15.03-.39,4.56-.85,12.05-1.16,16.62h0c-.45,6.67-5.99,11.85-12.67,11.85h-36.91c-7.49,0-13.39-6.44-12.69-13.9.85-8.94,1.63-17.91,2.36-26.9Z"/><path class="cls-5" d="m1401.7,706.51c-14.02-1.92-27.86-4.44-41.5-7.57-5.27-1.21-9.03-5.85-9.03-11.25v-41.46c0-8.24,8.35-13.71,15.98-10.61.06.02.12.05.17.07,5.8,2.35,11.94,4.49,18.43,6.42,6.49,1.94,13.05,3.73,19.68,5.39,7.18,1.66,14.43,2.9,21.75,3.73,7.31.83,14.42,1.24,21.33,1.24,11.32,0,21.47-1.31,30.45-3.93,8.97-2.62,16.01-6.76,21.12-12.43,5.11-5.66,7.66-12.9,7.66-21.74,0-9.94-5.25-18.02-15.74-24.23-10.5-6.21-26.65-13.05-48.46-20.5-19.61-6.63-35.62-13.26-48.05-19.88-12.42-6.63-22.99-16.29-31.69-29-8.7-12.7-13.05-29.27-13.05-49.7,0-32.31,10.56-57.3,31.69-74.97,21.12-17.67,49.63-26.51,85.53-26.51,13.25,0,27.55,1.1,42.87,3.31,12.29,1.77,24.35,4.16,36.19,7.17,5.13,1.31,8.75,5.9,8.75,11.19v40.63c0,8.12-8.14,13.66-15.71,10.71-2.1-.82-4.25-1.62-6.45-2.4-8.15-2.9-16.5-5.45-25.06-7.66-7.46-1.66-14.85-2.97-22.16-3.94-7.32-.96-14.15-1.45-20.5-1.45-16.57,0-29.82,2.97-39.76,8.91-9.94,5.94-14.91,15.68-14.91,29.2,0,8.28,2.21,15.05,6.63,20.29,4.41,5.25,10.15,9.53,17.19,12.84,7.04,3.31,16.78,7.04,29.2,11.18,21.81,7.18,40.11,14.36,54.88,21.54,14.77,7.19,27.55,17.33,38.31,30.45,10.77,13.12,16.16,29.76,16.16,49.91,0,31.76-11.26,56.12-33.76,73.11-22.51,16.98-52.67,25.47-90.5,25.47-14.64,0-30.51-1.18-47.64-3.52Z"/><path class="cls-5" d="m1665.13,693.05c-18.78-11.6-31.97-27.68-39.56-48.25-7.6-20.57-11.39-45.49-11.39-74.76v-177.71c0-10.06,8.16-18.22,18.22-18.22h27.36c10.06,0,18.22,8.16,18.22,18.22v180.19c0,17.4,1.17,31.48,3.52,42.25,2.34,10.77,8.21,19.74,17.6,26.92,9.39,7.19,24.02,10.77,43.91,10.77s34.93-3.58,45.15-10.77c10.21-7.18,16.91-16.29,20.09-27.33,3.17-11.04,4.77-24.71,4.77-41.01v-181.02c0-10.06,8.16-18.22,18.22-18.22h27.36c10.06,0,18.22,8.16,18.22,18.22v176.05c0,44.46-10.5,79.26-31.48,104.38-20.99,25.13-55.65,37.69-103.97,37.69-32.03,0-57.44-5.8-76.21-17.4Z"/></svg>